<svg width="20" height="20" viewBox="0 0 20 20" fill="none" xmlns="http://www.w3.org/2000/svg">
<mask id="mask0_367_1568" style="mask-type:alpha" maskUnits="userSpaceOnUse" x="0" y="0" width="20" height="20">
<rect width="20" height="20" fill="#D9D9D9"/>
</mask>
<g mask="url(#mask0_367_1568)">
<path d="M10.0007 11.666C10.459 11.666 10.8513 11.5028 11.1777 11.1764C11.5041 10.85 11.6673 10.4577 11.6673 9.99935C11.6673 9.54102 11.5041 9.14865 11.1777 8.82227C10.8513 8.49588 10.459 8.33268 10.0007 8.33268C9.54232 8.33268 9.14996 8.49588 8.82357 8.82227C8.49718 9.14865 8.33398 9.54102 8.33398 9.99935C8.33398 10.4577 8.49718 10.85 8.82357 11.1764C9.14996 11.5028 9.54232 11.666 10.0007 11.666ZM6.66732 14.9993H13.334V14.5202C13.334 14.1868 13.2437 13.8813 13.0632 13.6035C12.8826 13.3257 12.6326 13.1174 12.3132 12.9785C11.952 12.8257 11.5805 12.7077 11.1986 12.6243C10.8166 12.541 10.4173 12.4993 10.0007 12.4993C9.58398 12.4993 9.18468 12.541 8.80273 12.6243C8.42079 12.7077 8.04926 12.8257 7.68815 12.9785C7.36871 13.1174 7.11871 13.3257 6.93815 13.6035C6.7576 13.8813 6.66732 14.1868 6.66732 14.5202V14.9993ZM15.0007 18.3327H5.00065C4.54232 18.3327 4.14996 18.1695 3.82357 17.8431C3.49718 17.5167 3.33398 17.1243 3.33398 16.666V3.33268C3.33398 2.87435 3.49718 2.48199 3.82357 2.1556C4.14996 1.82921 4.54232 1.66602 5.00065 1.66602H11.6673L16.6673 6.66602V16.666C16.6673 17.1243 16.5041 17.5167 16.1777 17.8431C15.8513 18.1695 15.459 18.3327 15.0007 18.3327ZM15.0007 16.666V7.37435L10.959 3.33268H5.00065V16.666H15.0007Z" fill="#727272"/>
</g>
</svg>
