<svg width="20" height="20" viewBox="0 0 20 20" fill="none" xmlns="http://www.w3.org/2000/svg">
<mask id="mask0_367_1561" style="mask-type:alpha" maskUnits="userSpaceOnUse" x="0" y="0" width="20" height="20">
<rect width="20" height="20" fill="#D9D9D9"/>
</mask>
<g mask="url(#mask0_367_1561)">
<path d="M5 18.3327C4.30556 18.3327 3.71528 18.0896 3.22917 17.6035C2.74306 17.1174 2.5 16.5271 2.5 15.8327V13.3327H5V1.66602H17.5V15.8327C17.5 16.5271 17.2569 17.1174 16.7708 17.6035C16.2847 18.0896 15.6944 18.3327 15 18.3327H5ZM15 16.666C15.2361 16.666 15.434 16.5862 15.5938 16.4264C15.7535 16.2667 15.8333 16.0688 15.8333 15.8327V3.33268H6.66667V13.3327H14.1667V15.8327C14.1667 16.0688 14.2465 16.2667 14.4063 16.4264C14.566 16.5862 14.7639 16.666 15 16.666ZM7.5 7.49935V5.83268H15V7.49935H7.5ZM7.5 9.99935V8.33268H15V9.99935H7.5ZM5 16.666H12.5V14.9993H4.16667V15.8327C4.16667 16.0688 4.24653 16.2667 4.40625 16.4264C4.56597 16.5862 4.76389 16.666 5 16.666ZM5 16.666H4.16667H12.5H5Z" fill="#727272"/>
</g>
</svg>
