<svg width="20" height="20" viewBox="0 0 20 20" fill="none" xmlns="http://www.w3.org/2000/svg">
<mask id="mask0_367_1556" style="mask-type:alpha" maskUnits="userSpaceOnUse" x="0" y="0" width="20" height="20">
<rect width="20" height="20" fill="#D9D9D9"/>
</mask>
<g mask="url(#mask0_367_1556)">
<path d="M9.99947 9.9157C9.11632 9.9157 8.3673 9.60826 7.75241 8.99337C7.13752 8.37848 6.83008 7.62946 6.83008 6.7463C6.83008 5.86315 7.13752 5.11496 7.75241 4.50174C8.3673 3.88852 9.11632 3.58191 9.99947 3.58191C10.8826 3.58191 11.6316 3.88852 12.2465 4.50174C12.8614 5.11496 13.1689 5.86315 13.1689 6.7463C13.1689 7.62946 12.8614 8.37848 12.2465 8.99337C11.6316 9.60826 10.8826 9.9157 9.99947 9.9157ZM13.0393 16.2545V11.3949C13.4038 11.506 13.756 11.6353 14.0959 11.7828C14.4359 11.9303 14.769 12.1029 15.095 12.3007C15.4163 12.4814 15.6756 12.731 15.8729 13.0495C16.0702 13.368 16.1689 13.7098 16.1689 14.0751V16.2545H13.0393ZM3.83008 16.2545V14.0751C3.83008 13.708 3.92949 13.3706 4.12833 13.0629C4.32715 12.7552 4.58568 12.5028 4.90391 12.3056C5.22999 12.1079 5.56303 11.9344 5.90302 11.7853C6.24299 11.6361 6.59519 11.506 6.95962 11.3949V16.2545H3.83008Z" fill="#727272"/>
<path d="M8 15.8006L9.33333 12.3506H10.6667L12 15.8006L10 17.0006L8 15.8006ZM9.33333 11.0006H10.6667L11.3333 11.3006L10.6667 12.3506H9.33333L8.66667 11.3006L9.33333 11.0006Z" fill="#727272"/>
</g>
</svg>
